<?xml version="1.0" encoding="iso-8859-1"?>
<!-- Generator: Adobe Illustrator 19.0.0, SVG Export Plug-In . SVG Version: 6.00 Build 0)  -->
<svg
  version="1.1"
  id="Layer_1"
  xmlns="http://www.w3.org/2000/svg"
  xmlns:xlink="http://www.w3.org/1999/xlink"
  x="0px"
  y="0px"
  viewBox="0 0 474.198 474.198"
  style="enable-background: new 0 0 474.198 474.198"
  xml:space="preserve"
>
  <g>
    <polygon
      style="fill: #f8a805"
      points="392.914,243.615 363.007,272.492 326.622,236.108 309.628,257.314 355.341,336.489 
		466.448,336.489 	"
    />
    <polygon
      style="fill: #a18671"
      points="286.184,216.71 233.699,193.488 211.694,229.487 211.799,229.472 211.694,229.491 
		181.279,191.975 51.534,416.709 401.657,416.709 	"
    />
    <polygon
      style="fill: #f8a805"
      points="129.619,232.694 86.966,277.44 59.158,241.082 4.084,336.489 97.839,336.489 
		143.734,256.998 	"
    />
    <polygon
      style="fill: #efefef"
      points="96.697,176.069 59.165,241.081 87.008,277.494 129.611,232.695 	"
    />
    <polygon
      style="fill: #efefef"
      points="226.589,113.489 181.281,191.975 211.701,229.485 233.694,193.486 286.191,216.705 	"
    />
    <polygon
      style="fill: #efefef"
      points="356.695,198.581 326.626,236.109 363,272.484 392.869,243.656 	"
    />
    <path
      style="fill: #3e81c8"
      d="M433.304,114.822c-3.127-14.679-16.293-25.333-31.304-25.333c-6.001,0-11.844,1.669-16.898,4.824
		C379.41,81.055,366.416,72.489,352,72.489c-19.851,0-36,16.149-36,36c0,8.777,3.204,16,3.204,16h116.159L433.304,114.822z"
    />
    <path
      style="fill: #3e81c8"
      d="M166.304,99.822C163.177,85.143,150.011,74.489,135,74.489c-6.001,0-11.844,1.669-16.898,4.824
		C112.41,66.055,99.416,57.489,85,57.489c-19.851,0-36,16.149-36,36c0,8.444,3.204,16,3.204,16h116.159L166.304,99.822z"
    />
    <g>
      <path
        d="M472.69,331.479l-2.38-2.99l-107.37-134.92c-1.52-1.89-3.82-2.99-6.24-2.99c0,0,0,0-0.01,0c-2.42,0-4.72,1.11-6.24,3
			l-39.74,49.6l-77.19-133.69c-1.43-2.48-4.07-4-6.93-4c-2.85,0-5.5,1.52-6.92,4l-75.96,131.55l-40.1-68.99
			c-1.43-2.46-4.06-3.98-6.91-3.98c-0.01,0-0.01,0-0.01,0c-2.86,0.01-5.49,1.53-6.92,4l-88.7,153.63c-0.51,0.89-0.83,1.83-0.97,2.79
			H0v16h83.99l-35.22,61c-0.59,1.02-0.91,2.12-1.01,3.22h-0.01v0.06c-0.04,0.52-0.06,1.04,0,1.55v14.39h357.68v-14.29
			c0.07-0.56,0.05-1.12,0-1.69v-0.02c-0.11-1.1-0.42-2.2-1.01-3.22l-35.22-61H474C474,344.489,474.95,333.749,472.69,331.479z
			 M356.7,211.369l25.36,31.6l-18.96,18.3l-25.75-25.75L356.7,211.369z M226.59,129.489l40.41,69.98l-30.07-13.3
			c-3.66-1.62-7.97-0.27-10.06,3.15l-16.09,26.33l-19.82-24.44L226.59,129.489z M96.72,192.029l22.96,39.5l-32.01,33.66
			l-18.91-24.73L96.72,192.029z M17.94,328.489l42.15-73.02l20.56,26.88c1.42,1.86,3.59,3,5.92,3.13c0.15,0.01,0.29,0.01,0.43,0.01
			c2.19,0,4.29-0.89,5.8-2.49l35.26-37.06l6.43,11.07l-41.27,71.48L17.94,328.489L17.94,328.489z M127.12,408.709H65.39l37.08-64.22
			l9.23-16l70.69-122.44l23.09,28.48c1.53,1.88,3.82,2.96,6.22,2.96c0.17,0,0.35-0.01,0.53-0.02c2.59-0.17,4.94-1.59,6.29-3.81
			l18.35-30.02l9.83,4.35v26.25c0,8.96-7.29,16.25-16.26,16.25h-24.49c-17.78,0-32.25,14.47-32.25,32.25v0.5
			c0,17.78,14.47,32.25,32.25,32.25h66.49c7.86,0,14.42,5.59,15.93,13c0.22,1.05,0.33,2.14,0.33,3.25v14.5
			c0,8.96-7.29,16.25-16.26,16.25H157.95c-17.78,0-32.25,14.47-32.25,32.25v4.5C125.7,402.529,126.2,405.709,127.12,408.709z
			 M387.8,408.709H144.75c-1.92-2.67-3.05-5.94-3.05-9.47v-4.5c0-8.96,7.29-16.25,16.25-16.25h114.49
			c17.79,0,32.26-14.47,32.26-32.25v-14.5c0-1.1-0.06-2.18-0.17-3.25c-1.63-16.26-15.4-29-32.09-29h-66.49
			c-8.96,0-16.25-7.29-16.25-16.25v-0.5c0-8.96,7.29-16.25,16.25-16.25h24.49c17.79,0,32.26-14.47,32.26-32.25v-19.18l17.86,7.91
			l60.92,105.52l9.24,16L387.8,408.709z M359.96,328.489l-40.67-70.44l7.99-9.97l30.07,30.07c1.56,1.56,3.6,2.34,5.65,2.34
			c2.01,0,4.01-0.75,5.56-2.25l23.56-22.74l57.79,72.99H359.96z"
      />
      <path
        d="M402,81.489c-4.65,0-9.23,0.8-13.54,2.35c-8.09-11.96-21.66-19.35-36.46-19.35c-24.26,0-44,19.74-44,44
			c0,6.87,1.55,13.45,4.59,19.57c1.35,2.71,4.13,4.43,7.16,4.43h114.11c4.14,0,7.6-3.16,7.97-7.28c0.12-1.26,0.17-2.51,0.17-3.72
			C442,99.429,424.06,81.489,402,81.489z M325.16,116.489c-0.77-2.57-1.16-5.25-1.16-8c0-15.44,12.56-28,28-28
			c11.22,0,21.32,6.66,25.75,16.98c0.92,2.14,2.73,3.78,4.96,4.48c2.23,0.69,4.65,0.38,6.63-0.85c3.78-2.36,8.16-3.61,12.66-3.61
			c11.52,0,21.17,8.16,23.48,19H325.16z"
      />
      <path
        d="M135,66.489c-4.65,0-9.23,0.8-13.54,2.35c-8.09-11.96-21.66-19.35-36.46-19.35c-24.26,0-44,19.74-44,44
			c0,6.87,1.55,13.45,4.59,19.57c1.35,2.71,4.13,4.43,7.16,4.43h114.11c4.14,0,7.59-3.15,7.97-7.27c0.11-1.26,0.17-2.52,0.17-3.73
			C175,84.429,157.06,66.489,135,66.489z M58.16,101.489c-0.77-2.57-1.16-5.25-1.16-8c0-15.44,12.56-28,28-28
			c11.22,0,21.32,6.66,25.75,16.98c0.92,2.14,2.74,3.78,4.96,4.48c2.23,0.69,4.65,0.38,6.63-0.85c3.78-2.36,8.16-3.61,12.66-3.61
			c11.52,0,21.17,8.16,23.48,19H58.16z"
      />
    </g>
  </g>
  <g></g>
  <g></g>
  <g></g>
  <g></g>
  <g></g>
  <g></g>
  <g></g>
  <g></g>
  <g></g>
  <g></g>
  <g></g>
  <g></g>
  <g></g>
  <g></g>
  <g></g>
</svg>
