<?xml version="1.0" encoding="iso-8859-1"?>
<!-- Generator: Adobe Illustrator 19.0.0, SVG Export Plug-In . SVG Version: 6.00 Build 0)  -->
<svg version="1.1" id="Layer_1" xmlns="http://www.w3.org/2000/svg" xmlns:xlink="http://www.w3.org/1999/xlink" x="0px" y="0px"
	 viewBox="0 0 512 512" style="enable-background:new 0 0 512 512;" xml:space="preserve">
<g>
	<g>
		<g>
			<path d="M256,0.001c-141.158,0-256,114.842-256,256c0,48.99,13.858,94.805,37.828,133.751l117.367-164.309
				c1.493-2.108,3.874-3.413,6.451-3.567c2.705-0.162,5.094,0.896,6.827,2.816l37.103,41.233l10.675-20.446v-0.008l32.179-61.679
				c2.953-5.649,12.186-5.649,15.138,0l33.459,64.119v0.009l9.395,18.005l37.103-41.233c1.732-1.92,4.147-2.97,6.827-2.816
				c2.577,0.154,4.958,1.459,6.451,3.567l117.367,164.309C498.142,350.807,512,304.991,512,256.001
				C512,114.843,397.158,0.001,256,0.001z M187.733,136.535c-23.612,0-34.133,10.522-34.133,34.133c0,4.71-3.814,8.533-8.533,8.533
				s-8.533-3.823-8.533-8.533c0-18.901-6.699-25.6-25.6-25.6c-4.719,0-8.533-3.823-8.533-8.533s3.814-8.533,8.533-8.533
				c14.967,0,25.916,4.13,33.024,12.1c8.218-13.474,23.074-20.634,43.776-20.634c4.719,0,8.533,3.823,8.533,8.533
				C196.267,132.712,192.452,136.535,187.733,136.535z M332.8,145.068h-17.067c-11.537,0-21.308-7.663-24.499-18.167
				c-10.505-3.191-18.167-12.962-18.167-24.499c0-11.537,7.663-21.308,18.167-24.499c3.191-10.505,12.962-18.167,24.499-18.167
				c11.418,0,21.12,7.518,24.405,17.86c15.3,3.362,26.795,17.033,26.795,33.34C366.933,129.759,351.625,145.068,332.8,145.068z"/>
			<path d="M332.8,93.868c-4.719,0-8.533-3.823-8.533-8.533c0-4.702-3.823-8.533-8.533-8.533s-8.533,3.831-8.533,8.533
				c0,4.71-3.814,8.533-8.533,8.533c-4.71,0-8.533,3.831-8.533,8.533c0,4.702,3.823,8.533,8.533,8.533
				c4.719,0,8.533,3.823,8.533,8.533c0,4.702,3.823,8.533,8.533,8.533H332.8c9.412,0,17.067-7.654,17.067-17.067
				C349.867,101.522,342.212,93.868,332.8,93.868z"/>
			<polygon points="278.814,249.908 255.996,206.183 234.287,247.817 256.346,269.876 			"/>
			<path d="M314.848,282.077l51.123,97.98c2.167,4.173,0.555,9.335-3.618,11.511c-1.271,0.657-2.62,0.964-3.942,0.964
				c-3.081,0-6.05-1.664-7.578-4.582l-63.88-122.445l-25.284,22.477c-1.621,1.442-3.644,2.15-5.666,2.15
				c-2.193,0-4.378-0.836-6.033-2.5l-23.962-23.962l-58.325,111.795h122.453c4.719,0,8.533,3.823,8.533,8.533
				c0,4.719-3.814,8.533-8.533,8.533H119.468c-4.719,0-8.533-3.814-8.533-8.533c0-4.71,3.814-8.533,8.533-8.533h28.962
				l48.725-93.389l-34.253-38.067L47.968,404.914c46.498,64.777,122.394,107.085,208.034,107.085s161.536-42.308,208.034-107.085
				L349.1,244.009L314.848,282.077z"/>
		</g>
	</g>
</g>
<g>
</g>
<g>
</g>
<g>
</g>
<g>
</g>
<g>
</g>
<g>
</g>
<g>
</g>
<g>
</g>
<g>
</g>
<g>
</g>
<g>
</g>
<g>
</g>
<g>
</g>
<g>
</g>
<g>
</g>
</svg>
